<svg width="102" height="33" viewBox="0 0 102 33" fill="none" xmlns="http://www.w3.org/2000/svg">
<g clip-path="url(#clip0_59_2)">
<path d="M10.0766 1.95356C7.75282 3.02292 4.54476 4.46243 2.92016 5.18219L0 6.47776L0.123387 7.91727C0.267339 9.70638 0.802016 13.9632 0.945968 14.4362C1.02823 14.7447 1.11048 14.7447 1.97419 14.4568L2.92016 14.1278L2.79677 13.2846C2.73508 12.8322 2.57056 11.4749 2.44718 10.2822C2.2621 8.47251 2.28266 8.10235 2.52944 7.93784C2.67339 7.83501 5.4496 6.58058 8.65766 5.14106L14.498 2.52937L16.6573 3.51646C17.85 4.05114 20.3589 5.18219 22.2508 6.0459L25.6851 7.58824L27.2274 7.13582C28.0911 6.88905 28.7903 6.62171 28.7903 6.56001C28.7903 6.47776 27.8032 5.98421 26.5899 5.44953C25.356 4.91485 22.1274 3.45477 19.4129 2.24146C16.6778 1.00759 14.4157 -6.83795e-05 14.3746 0.0204961C14.3335 0.0410607 12.4004 0.90477 10.0766 1.95356Z" fill="#0089FF"/>
<path d="M27.5566 10.2414C26.4461 10.6116 26.3228 10.7555 26.3228 11.8866C26.3228 12.7297 26.3433 12.7503 26.8986 12.6269C28.2147 12.2979 28.3381 12.195 28.482 11.2285C28.5643 10.7144 28.5849 10.2209 28.5643 10.118C28.5232 10.0152 28.0707 10.0769 27.5566 10.2414Z" fill="#0089FF"/>
<path d="M35.3712 10.3644C33.6849 10.8374 33.5204 11.0019 33.5204 12.133V13.1406L35.9881 13.0995C38.3942 13.0584 38.4559 13.0584 38.9906 13.593C39.3813 13.9838 39.5458 14.3745 39.5664 14.9297L39.5869 15.7317L37.0986 15.7934L34.5898 15.8551L34.4458 16.616C34.3841 17.0273 34.2607 17.5826 34.199 17.8293C34.0962 18.3023 34.0962 18.3023 36.5845 18.3023C38.4353 18.3023 39.0728 18.364 39.0728 18.5491C39.0523 19.2071 38.2091 20.585 37.5922 20.9963C36.9752 21.387 36.6873 21.4076 34.4869 21.3253L32.0603 21.2225L31.6696 22.0245C31.4434 22.4563 31.2583 22.9499 31.2583 23.135C31.2583 24.1015 36.1115 24.6567 38.3531 23.9576C41.3966 22.991 43.0418 19.968 43.0829 15.3205C43.0829 12.7088 42.6305 11.5983 41.1704 10.7551C40.3478 10.2616 39.9571 10.1793 38.2502 10.1382C37.0986 10.1176 35.9059 10.1999 35.3712 10.3644Z" fill="#0089FF"/>
<path d="M45.9412 10.2202C45.7355 10.3642 43.1855 22.8468 43.1855 23.7105C43.1855 24.0396 43.3706 24.0807 44.7896 24.019L46.373 23.9573L46.8872 21.4896L47.4013 19.0218L49.4577 18.919C52.2956 18.7545 53.7763 17.9114 54.5783 15.9989C54.9896 15.0323 55.0101 12.9142 54.5989 12.1533C54.1876 11.3307 53.1593 10.5287 52.3779 10.4053C51.1029 10.1997 46.1674 10.0763 45.9412 10.2202ZM51.0001 13.1609C51.5347 13.4489 51.6787 14.2714 51.3291 15.094C50.9589 15.9989 50.4654 16.2456 49.0464 16.2456C47.9359 16.2456 47.8743 16.2251 47.9771 15.7726C48.0388 15.5259 48.2033 14.7855 48.3267 14.1275L48.5529 12.9553H49.5811C50.1569 12.9553 50.7944 13.0376 51.0001 13.1609Z" fill="#0089FF"/>
<path d="M9.64537 10.8789L8.9873 11.537L9.11069 13.7374C9.23408 16.2257 9.60424 17.8298 10.5091 19.6806C11.0438 20.791 12.0925 22.0043 12.5038 22.0043C12.9151 21.9838 13.2236 21.5314 13.6349 20.3386C14.2518 18.5289 14.7042 18.5289 15.3006 20.3181C15.7942 21.7781 16.226 22.1894 16.8635 21.737C17.9946 20.9556 19.0022 18.8785 19.5575 16.1846C20.38 12.1334 19.8454 10.2826 17.8506 10.2826C17.0897 10.2826 16.0821 10.7144 14.3135 11.7838C13.018 12.5858 11.5784 12.9148 10.9615 12.5652C10.653 12.3802 10.6942 12.3596 11.27 12.339C12.0103 12.339 12.9357 11.9277 13.347 11.4342C13.5526 11.1874 13.4909 11.0846 12.9563 10.7967C12.6067 10.6116 11.8663 10.406 11.3111 10.3443C10.3857 10.2414 10.2623 10.2826 9.64537 10.8789Z" fill="#0089FF"/>
<path d="M56.7997 11.0435C56.6763 11.4753 56.5324 12.0717 56.4707 12.3802L56.3473 12.956H59.0618C61.4062 12.956 61.8997 13.0177 62.455 13.3673C63.3804 13.9225 63.6477 14.9919 63.3392 16.9044C62.8457 20.1535 61.6941 21.3874 59.1441 21.3874H58.013L58.1158 20.7088C58.1981 20.3592 58.4243 19.187 58.63 18.1177C59.1852 15.4031 59.288 15.6088 57.4372 15.6705L55.8332 15.7322L55.0723 19.6394C54.661 21.7781 54.3114 23.6701 54.3114 23.7935C54.2908 23.9991 55.1134 24.0608 57.7868 24.0608C61.6118 24.0608 62.5989 23.8552 64.0796 22.7241C65.6836 21.5108 66.7118 18.5495 66.7324 15.2181C66.7324 13.5112 66.6707 13.141 66.2183 12.339C65.8687 11.7427 65.3751 11.2491 64.7787 10.8995C63.915 10.4265 63.6477 10.3854 60.4191 10.3237L56.9848 10.2415L56.7997 11.0435Z" fill="#0089FF"/>
<path d="M69.4041 10.735C69.3424 11.0023 69.2191 11.5987 69.1162 12.0923L68.9312 12.956L73.4759 12.9148L78.0207 12.8531L78.1441 12.339C78.2263 12.0511 78.3497 11.4753 78.432 11.0435L78.5759 10.2826H74.0517C69.507 10.2826 69.507 10.2826 69.4041 10.735Z" fill="#0089FF"/>
<path d="M79.9139 10.4467C79.7905 10.6523 77.3228 23.32 77.3228 23.7519C77.3228 24.1632 80.3663 24.2043 80.5103 23.793C80.5719 23.6696 80.8187 22.3946 81.0861 20.9757L81.559 18.4051L83.6566 18.3434L85.7542 18.2817L85.6308 18.9604C85.5486 19.3305 85.3224 20.5027 85.1167 21.5721C84.8905 22.6208 84.726 23.6079 84.726 23.7725C84.726 24.1632 87.7695 24.1837 87.9135 23.793C88.0369 23.4846 90.484 10.7346 90.484 10.4672C90.484 10.3438 89.8054 10.2821 88.9006 10.3233L87.2965 10.385L87.0292 11.8245C86.8853 12.6059 86.659 13.7781 86.5151 14.395L86.2683 15.5261L84.2736 15.5878C81.9086 15.6495 82.0526 15.8962 82.6695 12.7087C82.8957 11.5366 83.0808 10.5289 83.0808 10.4261C83.0808 10.2204 80.0578 10.241 79.9139 10.4467Z" fill="#0089FF"/>
<path d="M91.3268 11.4548C91.2034 12.0923 91.1006 12.6886 91.1006 12.7915C91.1006 12.8737 91.9026 12.956 92.8691 12.956C94.4526 12.956 94.6171 12.9971 94.5143 13.3056C94.3292 13.9431 92.5401 23.341 92.5401 23.7112C92.5401 23.9991 92.7663 24.0608 94.0824 24.0608C95.5014 24.0608 95.6248 24.0197 95.7276 23.6084C95.7893 23.341 96.2828 20.8733 96.8175 18.0971L97.8046 13.0588L99.5732 12.9971C101.547 12.9354 101.486 12.9765 101.712 11.3108L101.856 10.2826H96.7147H91.5736L91.3268 11.4548Z" fill="#0089FF"/>
<path d="M26.4663 15.9169C25.6848 16.1637 25.6642 16.1843 24.9034 18.4464C24.4921 19.6802 23.834 21.2431 23.4433 21.9012C21.9832 24.3278 18.734 27.3508 15.7522 29.0165L14.5388 29.6952L13.0788 28.9137C10.9401 27.7827 8.18441 25.5 6.74489 23.6286C5.4082 21.9012 5.49046 21.9423 4.15376 22.4359C3.57796 22.6621 3.70134 22.9089 5.1203 24.7802C7.01223 27.248 10.0969 29.8597 13.0788 31.4843L14.3332 32.1629L15.238 31.7722C17.9526 30.5589 21.9832 27.248 23.9985 24.5952C25.253 22.9294 26.5897 20.071 27.2477 17.6855C27.5356 16.6161 27.7618 15.7113 27.7618 15.6702C27.7618 15.5879 27.2272 15.6702 26.4663 15.9169Z" fill="#0089FF"/>
<path d="M68.3768 15.8761C68.2946 16.1846 66.8345 23.7318 66.8345 23.9169C66.8345 23.9991 68.9115 24.0608 71.4409 24.0608H76.0474L76.2736 23.0326C76.6437 21.264 76.8494 21.3874 73.5385 21.3874H70.5978L70.9062 19.8451L71.2147 18.3027H73.7441C76.5615 18.3027 76.3353 18.4261 76.6849 16.5959L76.8494 15.6294H72.6542C69.4873 15.6294 68.4385 15.691 68.3768 15.8761Z" fill="#0089FF"/>
<path d="M2.4479 17.5206L1.68701 17.7057L2.01604 18.7339C2.26282 19.4948 2.42733 19.721 2.67411 19.6387C2.83862 19.5565 3.22935 19.4537 3.55838 19.392C4.19588 19.2686 4.21645 19.1863 3.86685 18.0758C3.62008 17.2121 3.59951 17.2121 2.4479 17.5206Z" fill="#0089FF"/>
</g>
<defs>
<clipPath id="clip0_59_2">
<rect width="102" height="32.2863" fill="white"/>
</clipPath>
</defs>
</svg>
