<svg width="130" height="41" viewBox="0 0 130 41" fill="none" xmlns="http://www.w3.org/2000/svg">
<path d="M12.8419 2.48126C9.88019 3.83922 5.79148 5.66725 3.72092 6.58126L-0.000854492 8.22649L0.156404 10.0545C0.339871 12.3265 1.02132 17.7322 1.20479 18.3329C1.30963 18.7246 1.41447 18.7246 2.51527 18.359L3.72092 17.9411L3.56366 16.8704C3.48503 16.2959 3.27536 14.5723 3.1181 13.0577C2.88221 10.7596 2.90842 10.2895 3.22294 10.0806C3.4064 9.95005 6.94471 8.35706 11.0334 6.52903L18.477 3.21247L21.229 4.46598C22.7491 5.14496 25.9467 6.58126 28.358 7.67808L32.735 9.63668L34.7008 9.06215C35.8016 8.74878 36.6927 8.40929 36.6927 8.33094C36.6927 8.22649 35.4346 7.59973 33.8883 6.92075C32.3157 6.24177 28.2008 4.38763 24.7411 2.84687C21.2552 1.27999 18.3721 0.000369717 18.3197 0.0264844C18.2673 0.052599 15.8036 1.14941 12.8419 2.48126Z" fill="#0089FF"/>
<path d="M35.1197 13.0058C33.7044 13.4758 33.5471 13.6586 33.5471 15.095C33.5471 16.1657 33.5733 16.1918 34.281 16.0351C35.9584 15.6172 36.1157 15.4867 36.2991 14.2593C36.404 13.6064 36.4302 12.9797 36.404 12.8491C36.3516 12.7185 35.775 12.7969 35.1197 13.0058Z" fill="#0089FF"/>
<path d="M45.0795 13.1621C42.9303 13.7628 42.7206 13.9717 42.7206 15.408V16.6876L45.8658 16.6354C48.9323 16.5831 49.0109 16.5831 49.6924 17.2621C50.1904 17.7583 50.4 18.2545 50.4262 18.9596L50.4525 19.978L47.2811 20.0564L44.0835 20.1347L43.9 21.101C43.8214 21.6233 43.6641 22.3284 43.5855 22.6417C43.4545 23.2424 43.4545 23.2424 46.6258 23.2424C48.9847 23.2424 49.7972 23.3207 49.7972 23.5558C49.771 24.3914 48.6964 26.1411 47.9101 26.6634C47.1238 27.1596 46.7569 27.1857 43.9525 27.0812L40.8597 26.9507L40.3617 27.9691C40.0734 28.5175 39.8375 29.1443 39.8375 29.3793C39.8375 30.6067 46.023 31.3118 48.8799 30.4239C52.7589 29.1965 54.8557 25.3577 54.9081 19.4558C54.9081 16.1392 54.3315 14.729 52.4706 13.6583C51.4222 13.0315 50.9242 12.9271 48.7488 12.8749C47.2811 12.8487 45.7609 12.9532 45.0795 13.1621Z" fill="#0089FF"/>
<path d="M58.5516 12.9792C58.2895 13.162 55.0395 29.0136 55.0395 30.1104C55.0395 30.5282 55.2754 30.5805 57.0839 30.5021L59.102 30.4238L59.7573 27.29L60.4125 24.1563L63.0335 24.0257C66.6504 23.8168 68.5375 22.7461 69.5597 20.3174C70.0839 19.09 70.1101 16.4002 69.5859 15.434C69.0617 14.3894 67.7512 13.3709 66.7553 13.2142C65.1303 12.9531 58.84 12.7964 58.5516 12.9792ZM64.9992 16.7136C65.6807 17.0792 65.8641 18.1238 65.4186 19.1684C64.9468 20.3174 64.3178 20.6308 62.5093 20.6308C61.094 20.6308 61.0154 20.6047 61.1464 20.0301C61.225 19.7168 61.4347 18.7766 61.592 17.941L61.8803 16.4524H63.1908C63.9246 16.4524 64.7371 16.5569 64.9992 16.7136Z" fill="#0089FF"/>
<path d="M12.2923 13.8153L11.4536 14.651L11.6108 17.4453C11.7681 20.6051 12.2398 22.6421 13.3931 24.9924C14.0745 26.4026 15.4112 27.9433 15.9354 27.9433C16.4596 27.9172 16.8527 27.3427 17.3769 25.8281C18.1632 23.53 18.7398 23.53 19.4999 25.8019C20.129 27.6561 20.6794 28.1784 21.4919 27.6039C22.9334 26.6115 24.2177 23.9739 24.9253 20.5529C25.9737 15.4083 25.2923 13.058 22.7499 13.058C21.7802 13.058 20.4959 13.6064 18.2419 14.9644C16.5906 15.9828 14.756 16.4007 13.9697 15.9567C13.5765 15.7217 13.629 15.6956 14.3628 15.6695C15.3064 15.6695 16.4858 15.1472 17.01 14.5204C17.2721 14.207 17.1935 14.0765 16.512 13.7109C16.0665 13.4758 15.1229 13.2147 14.4152 13.1363C13.2358 13.0058 13.0786 13.058 12.2923 13.8153Z" fill="#0089FF"/>
<path d="M72.3916 14.0245C72.2343 14.5729 72.0508 15.3302 71.9722 15.7219L71.8149 16.4531H75.2746C78.2625 16.4531 78.8916 16.5315 79.5992 16.9754C80.7787 17.6805 81.1194 19.0385 80.7262 21.4671C80.0972 25.5933 78.6295 27.1601 75.3795 27.1601H73.9379L74.069 26.2984C74.1738 25.8544 74.4621 24.3659 74.7242 23.0079C75.4319 19.5608 75.5629 19.8219 73.2041 19.9003L71.1597 19.9786L70.1899 24.9404C69.6658 27.6563 69.2202 30.0589 69.2202 30.2156C69.194 30.4767 70.2424 30.555 73.6496 30.555C78.5246 30.555 79.7827 30.2939 81.6698 28.8576C83.7141 27.3168 85.0246 23.5563 85.0508 19.3257C85.0508 17.1582 84.9722 16.6882 84.3956 15.6697C83.95 14.9124 83.321 14.2856 82.5609 13.8417C81.4601 13.241 81.1194 13.1888 77.0045 13.1105L72.6274 13.006L72.3916 14.0245Z" fill="#0089FF"/>
<path d="M88.456 13.6326C88.3774 13.9721 88.2201 14.7294 88.0891 15.3561L87.8532 16.453L93.6455 16.4007L99.4379 16.3224L99.5951 15.6695C99.7 15.3039 99.8572 14.5727 99.9621 14.0243L100.146 13.0581H94.3794C88.5871 13.0581 88.5871 13.0581 88.456 13.6326Z" fill="#0089FF"/>
<path d="M101.85 13.2661C101.692 13.5272 98.5471 29.6139 98.5471 30.1623C98.5471 30.6846 102.426 30.7368 102.61 30.2145C102.688 30.0578 103.003 28.4387 103.343 26.6368L103.946 23.3725L106.62 23.2941L109.293 23.2158L109.136 24.0776C109.031 24.5476 108.743 26.0362 108.481 27.3941C108.192 28.726 107.983 29.9795 107.983 30.1884C107.983 30.6846 111.862 30.7107 112.045 30.2145C112.202 29.8228 115.321 13.6317 115.321 13.2922C115.321 13.1355 114.456 13.0572 113.303 13.1094L111.259 13.1878L110.918 15.0158C110.735 16.0081 110.446 17.4967 110.263 18.2801L109.948 19.7164L107.406 19.7948C104.392 19.8731 104.575 20.1865 105.362 16.1387C105.65 14.6502 105.886 13.3706 105.886 13.24C105.886 12.9788 102.033 13.005 101.85 13.2661Z" fill="#0089FF"/>
<path d="M116.396 14.5468C116.239 15.3563 116.108 16.1136 116.108 16.2442C116.108 16.3487 117.13 16.4531 118.362 16.4531C120.38 16.4531 120.59 16.5054 120.459 16.8971C120.223 17.7066 117.942 29.641 117.942 30.1111C117.942 30.4767 118.231 30.555 119.908 30.555C121.717 30.555 121.874 30.5028 122.005 29.9805C122.084 29.641 122.713 26.5073 123.394 22.9818L124.652 16.5837L126.906 16.5054C129.422 16.427 129.344 16.4792 129.632 14.364L129.815 13.0582H123.263H116.711L116.396 14.5468Z" fill="#0089FF"/>
<path d="M33.7313 20.2132C32.7353 20.5266 32.7091 20.5527 31.7393 23.4253C31.2151 24.9922 30.3764 26.9769 29.8785 27.8125C28.0176 30.8941 23.8764 34.7329 20.076 36.8482L18.5297 37.71L16.6688 36.7176C13.943 35.2813 10.4309 32.3826 8.5962 30.0062C6.89257 27.8125 6.99741 27.8648 5.29378 28.4915C4.55991 28.7788 4.71717 29.0922 6.52563 31.4686C8.93692 34.6023 12.8684 37.9189 16.6688 39.982L18.2676 40.8438L19.4208 40.3476C22.8805 38.8068 28.0176 34.6023 30.5861 31.2336C32.1849 29.1183 33.8885 25.4883 34.7272 22.459C35.0942 21.1011 35.3825 19.952 35.3825 19.8998C35.3825 19.7953 34.701 19.8998 33.7313 20.2132Z" fill="#0089FF"/>
<path d="M87.1467 20.1614C87.0418 20.5531 85.181 30.1372 85.181 30.3722C85.181 30.4767 87.8281 30.555 91.0519 30.555H96.9229L97.2112 29.2493C97.683 27.0035 97.9451 27.1601 93.7253 27.1601H89.9773L90.3705 25.2015L90.7636 23.2429H93.9874C97.5781 23.2429 97.2898 23.3996 97.7354 21.0754L97.9451 19.848H92.5983C88.562 19.848 87.2253 19.9264 87.1467 20.1614Z" fill="#0089FF"/>
<path d="M3.11839 22.2495L2.14864 22.4846L2.56799 23.7903C2.88251 24.7565 3.09218 25.0438 3.4067 24.9393C3.61638 24.8349 4.11436 24.7043 4.53372 24.626C5.34622 24.4693 5.37243 24.3648 4.92686 22.9546C4.61235 21.8578 4.58614 21.8578 3.11839 22.2495Z" fill="#0089FF"/>
</svg>
