<svg width="20" height="20" viewBox="0 0 20 20" fill="none" xmlns="http://www.w3.org/2000/svg">
<path d="M9.54868 1.26501C4.93474 1.26501 1.1936 5.00615 1.1936 9.62009C1.1936 14.234 4.93474 17.9752 9.54868 17.9752C14.1626 17.9752 17.9038 14.234 17.9038 9.62009C17.9038 5.00615 14.1626 1.26501 9.54868 1.26501ZM13.1574 6.89164L9.22977 12.3374C9.17488 12.414 9.10251 12.4764 9.01867 12.5195C8.93483 12.5625 8.84193 12.585 8.74768 12.585C8.65342 12.585 8.56052 12.5625 8.47668 12.5195C8.39284 12.4764 8.32048 12.414 8.26558 12.3374L5.93996 9.11468C5.86909 9.01584 5.93996 8.87783 6.06118 8.87783H6.93585C7.12608 8.87783 7.30698 8.96922 7.41888 9.12587L8.74674 10.9685L11.6785 6.90283C11.7904 6.74803 11.9694 6.65479 12.1615 6.65479H13.0362C13.1574 6.65479 13.2283 6.79279 13.1574 6.89164Z" fill="#0089FF"/>
</svg>
